<svg xmlns="http://www.w3.org/2000/svg" width="1080.996" height="340.001" viewBox="0 0 1080.996 340.001"><defs><style>.a{fill:#df134c;}.b{fill:#fff;font-size:28px;font-family:Muli;}.c,.d{fill:#f2a1b7;}.d{font-size:20px;font-family:SegoeUI, Segoe UI;letter-spacing:0.1em;}</style></defs><g transform="translate(-0.002 -9477.999)"><path class="a" d="M0,9548l319.581-70L1081,9548v270H0Z"/><text class="b" transform="translate(94.061 9634.085)"><tspan x="0" y="0">Copyright © Martval Ltd 1997 - 2020</tspan></text><text class="b" transform="translate(95.061 9690.085)"><tspan x="0" y="0" xml:space="preserve">Veebilehe kasutustingimused      |      Privaatsus</tspan></text><path class="c" d="M970.748,9772.819a12.307,12.307,0,0,0,6.9-2.922h5.253a16.258,16.258,0,0,1-12.158,6.848Zm-17.4-11.186h3.921a12.382,12.382,0,0,0,11.189,11.186v3.926A16.292,16.292,0,0,1,953.352,9761.634Zm23.575,3.285,1.678-1.838a2.632,2.632,0,0,0,2.054,1.009c.77,0,1.632-.361,1.632-1.116,0-1.966-5.013-.908-5.013-4.474,0-2.276,1.978-3.469,4.076-3.469a4.847,4.847,0,0,1,3.278,1.113l-1.615,1.77a2.285,2.285,0,0,0-1.708-.712c-.665,0-1.585.3-1.585,1.1,0,1.951,4.922.7,4.922,4.441,0,2.385-1.919,3.521-4.122,3.521A5.08,5.08,0,0,1,976.927,9764.919Zm-5.987.9-2.356-7.4h-.029l-2.356,7.4h-2.024l-3.175-10.7h2.569l1.71,6.858h.027l2.235-6.858h2.191l2.221,7.037h.029l1.8-7.037h2.385l-3.126,10.7Zm-17.588-6.47a16.3,16.3,0,0,1,15.109-15.115v3.926a12.382,12.382,0,0,0-11.189,11.189Zm24.3-8.27a12.332,12.332,0,0,0-6.907-2.92v-3.926a16.278,16.278,0,0,1,12.16,6.846Z"/><text class="d" transform="translate(936.826 9769.056)"><tspan x="-88.807" y="0">WEBSITE</tspan></text></g></svg>